<?xml version="1.0" encoding="UTF-8" standalone="no"?>
<svg width="36px" height="36px" viewBox="0 0 36 36" version="1.1" xmlns="http://www.w3.org/2000/svg" xmlns:xlink="http://www.w3.org/1999/xlink" xmlns:sketch="http://www.bohemiancoding.com/sketch/ns">
    <!-- Generator: Sketch 3.4.2 (15855) - http://www.bohemiancoding.com/sketch -->
    <title>Oval 1</title>
    <desc>Created with Sketch.</desc>
    <defs></defs>
    <g id="working---landing" stroke="none" stroke-width="1" fill="none" fill-rule="evenodd" sketch:type="MSPage">
        <g id="landing-copy-14" sketch:type="MSArtboardGroup" transform="translate(-676.000000, -1444.000000)" fill="#3E3E3E">
            <path d="M694,1480 C703.941125,1480 712,1471.94113 712,1462 C712,1452.05887 703.941125,1444 694,1444 C684.058875,1444 676,1452.05887 676,1462 C676,1471.94113 684.058875,1480 694,1480 Z M703.799228,1456.89973 C703.100231,1457.20949 702.349217,1457.41888 701.560879,1457.51303 C702.365467,1457.03099 702.983434,1456.2677 703.27446,1455.35813 C702.521332,1455.80454 701.687358,1456.12865 700.799587,1456.3033 C700.088718,1455.54631 699.075803,1455.07336 697.954847,1455.07336 C695.802537,1455.07336 694.057604,1456.81719 694.057604,1458.96819 C694.057604,1459.27347 694.092071,1459.57074 694.158521,1459.85585 C690.919537,1459.69337 688.047823,1458.14276 686.125655,1455.78622 C685.790181,1456.36148 685.597957,1457.03055 685.597957,1457.74437 C685.597957,1459.09571 686.285972,1460.2879 687.331722,1460.98638 C686.692867,1460.96613 686.09193,1460.79093 685.566532,1460.49919 C685.566161,1460.51543 685.566161,1460.53174 685.566161,1460.54817 C685.566161,1462.43531 686.909578,1464.0095 688.692392,1464.3674 C688.365414,1464.45635 688.021073,1464.50411 687.665638,1464.50411 C687.414496,1464.50411 687.170367,1464.47964 686.932359,1464.4341 C687.428335,1465.98145 688.867587,1467.10771 690.573006,1467.13904 C689.239198,1468.18381 687.558748,1468.80642 685.732785,1468.80642 C685.418199,1468.80642 685.107991,1468.78802 684.803089,1468.75187 C686.527801,1469.85711 688.576375,1470.50193 690.777252,1470.50193 C697.94572,1470.50193 701.865781,1464.56685 701.865781,1459.41979 C701.865781,1459.25093 701.861922,1459.08296 701.854465,1458.91587 C702.616016,1458.36676 703.276761,1457.68078 703.799228,1456.89973 L703.799228,1456.89973 Z" id="Oval-1" sketch:type="MSShapeGroup"></path>
        </g>
    </g>
</svg>