<?xml version="1.0" encoding="UTF-8" standalone="no"?>
<svg width="900px" height="349px" viewBox="0 0 900 349" version="1.1" xmlns="http://www.w3.org/2000/svg" xmlns:xlink="http://www.w3.org/1999/xlink" xmlns:sketch="http://www.bohemiancoding.com/sketch/ns">
    <!-- Generator: Sketch 3.4.2 (15855) - http://www.bohemiancoding.com/sketch -->
    <title>logo</title>
    <desc>Created with Sketch.</desc>
    <defs>
        <path id="path-1" d="M51.1316074,91.1349986 C34.3243542,60.8748092 0.709847682,0.35443038 0.709847682,0.35443038 L104.342233,1.89437055 C104.342233,1.89437055 70.7889853,61.3072787 54.0123616,91.1349986 C53.5169211,91.8910118 51.5964183,91.9718556 51.1316074,91.1349986 Z"></path>
    </defs>
    <g id="Page-1" stroke="none" stroke-width="1" fill="none" fill-rule="evenodd" sketch:type="MSPage">
        <g id="Artboard-1" sketch:type="MSArtboardGroup" transform="translate(-366.000000, -305.000000)">
            <g id="logo" sketch:type="MSLayerGroup" transform="translate(366.000000, 305.000000)">
                <g id="V-+-ICTORIES" transform="translate(140.000000, 100.000000)">
                    <path d="M132.263842,3.85257702 L109.439825,3.85257702 L109.439825,91.3626129 L132.263842,91.3626129 L132.263842,3.85257702 Z M208.249038,33.2115139 L208.249038,5.94964394 C201.570655,3.07797037 194.607787,1.60437052 187.360224,1.52880016 C174.382912,1.67994087 163.246117,6.40301734 153.949505,15.6981712 C145.373855,24.6532586 141.048149,35.3274114 140.972258,47.7209499 C140.896367,60.870192 145.601521,71.9032986 155.08786,80.8206008 C164.498308,89.3222659 175.502296,93.6108194 188.100155,93.6863897 C191.591127,93.6863897 194.930269,93.2518667 198.117678,92.3828076 C201.229198,91.7026744 204.606284,90.7769514 208.249038,89.6056108 L208.249038,62.3437409 C203.050524,68.4649398 196.486076,71.5632779 188.555497,71.6388483 C181.307934,71.5632779 175.597243,69.2773089 171.423254,64.7808727 C167.059538,60.4355772 164.839768,54.7867777 164.763877,47.8343049 C164.839768,40.881832 167.021593,35.1196787 171.309419,30.5476721 C175.483408,25.9756655 181.118209,23.6519119 188.21399,23.5763416 C196.448132,23.6519119 203.126415,26.8636039 208.249038,33.2115139 L208.249038,33.2115139 Z M259.133506,23.1229217 L278.030199,23.1229217 L278.030199,3.85257702 L217.412796,3.85257702 L217.412796,23.1229217 L236.309488,23.1229217 L236.309488,91.3626129 L259.133506,91.3626129 L259.133506,23.1229217 Z M326.865628,0.962025316 C313.812425,1.11316603 302.580768,5.28836563 293.17032,13.4877494 C283.456309,21.6871331 278.485542,32.5124243 278.25787,45.9639479 C278.409651,60.3601009 283.00097,71.9410844 292.031965,80.7072458 C300.873233,89.5867627 312.484338,94.1020238 326.865628,94.2531646 C341.246917,94.1020238 352.914939,89.5867627 361.870043,80.7072458 C370.787202,71.9410844 375.321604,60.3601009 375.473386,45.9639479 C375.245713,32.5124243 370.312891,21.6871331 360.674771,13.4877494 C351.264322,5.28836563 339.994721,1.11316603 326.865628,0.962025316 L326.865628,0.962025316 Z M326.865628,23.0095667 C333.961409,23.0851371 339.823879,25.4088907 344.453212,29.9808973 C349.196382,34.4395484 351.605876,39.8049632 351.681766,46.0773029 C351.605876,53.7476941 349.196382,59.982155 344.453212,64.7808727 C339.823879,69.6551607 333.961409,72.1300528 326.865628,72.2056231 C319.959573,72.1300528 314.135048,69.6551607 309.391878,64.7808727 C304.572818,59.982155 302.12538,53.7476941 302.049489,46.0773029 C302.12538,39.8049632 304.572818,34.4395484 309.391878,29.9808973 C314.135048,25.4088907 319.959573,23.0851371 326.865628,23.0095667 L326.865628,23.0095667 Z M427.894633,55.4857653 C434.193562,54.163284 438.974605,51.2727612 442.237906,46.8141102 C445.501206,42.2421036 447.132832,36.895581 447.132832,30.7743821 C447.056941,21.4036578 444.173137,14.5646431 438.481334,10.2571327 C432.827476,5.98740758 425.523105,3.85257702 416.568001,3.85257702 L382.417351,3.85257702 L382.417351,91.3626129 L405.241368,91.3626129 L405.241368,57.6961872 L405.525957,57.6961872 L427.040866,91.3626129 L455.499741,91.3626129 L427.894633,55.4857653 Z M405.241368,21.2525647 L407.461161,21.2525647 L410.420884,21.2525647 C411.331572,21.2525647 412.261219,21.3281339 413.209853,21.4792747 C414.993285,21.7815561 416.662856,22.3294329 418.218615,23.1229217 C419.774375,23.8030549 421.00758,24.8799163 421.918269,26.3535383 C422.866903,27.8271603 423.341213,29.7730678 423.341213,32.1913192 C423.341213,34.4962151 422.866903,36.3476611 421.918269,37.7457127 C421.00758,39.2193346 419.774375,40.3339807 418.218615,41.0896842 C416.662856,41.883173 414.993285,42.3932652 413.209853,42.6199763 C411.350531,42.9222577 409.434319,43.0733962 407.461161,43.0733962 L405.241368,43.0733962 L405.241368,21.2525647 Z M486.349161,3.85257702 L463.525144,3.85257702 L463.525144,91.3626129 L486.349161,91.3626129 L486.349161,3.85257702 Z M549.527863,23.1229217 L549.527863,3.85257702 L499.497161,3.85257702 L499.497161,91.3626129 L549.527863,91.3626129 L549.527863,72.0922682 L522.321179,72.0922682 L522.321179,57.0160573 L548.104919,57.0160573 L548.104919,37.7457127 L522.321179,37.7457127 L522.321179,23.1229217 L549.527863,23.1229217 Z M608.210063,26.3535383 L617.316903,8.72684067 C608.665361,4.00369336 599.482723,1.60437052 589.768712,1.52880016 C580.851553,1.60437052 573.623071,4.26818564 568.083049,9.52032545 C562.429191,14.6968949 559.56436,21.8192942 559.488469,30.8877371 C559.488469,35.0063215 560.114558,38.4447212 561.366755,41.2030392 C562.429225,43.9991424 564.022906,46.2473268 566.147846,47.9476598 C568.234841,49.6479929 570.758169,51.0838081 573.717907,52.2551487 C576.563808,53.5020595 579.75117,54.6167056 583.280088,55.5991202 C585.974209,56.2414683 588.91493,57.2616528 592.10234,58.6597044 C593.582209,59.3398376 594.796442,60.2655606 595.745076,61.4369011 C596.655764,62.5704565 597.111102,63.9495948 597.111102,65.5743575 C597.035211,68.5971718 595.877895,70.8075715 593.639119,72.2056231 C591.400343,73.6792451 588.877015,74.416045 586.069058,74.416045 C582.236577,74.416045 578.61285,73.490322 575.197768,71.6388483 C571.858577,69.9385153 568.709159,67.8414693 565.749422,65.3476475 L555.959569,83.7111525 C565.218236,90.2102032 575.520245,93.535249 586.865907,93.6863897 C596.200464,93.7619601 604.510373,91.0225757 611.795881,85.4681545 C615.324799,82.3697698 617.734293,78.7613394 619.024435,74.642755 C620.276632,70.4863853 620.902721,66.2356165 620.902721,61.890321 C620.82683,54.9378482 618.777812,49.5913256 614.755604,45.8505929 C610.771342,42.2232158 605.591878,39.5971853 599.217058,37.9724226 L593.411448,36.2154206 C591.324453,35.6108577 589.180573,34.6851347 586.979742,33.4382238 C584.589185,32.191313 583.355979,30.339867 583.280088,27.8838304 C583.355979,25.3900086 584.47535,23.5385626 586.638236,22.3294369 C588.64934,21.1580964 590.79322,20.5724349 593.069941,20.5724349 C598.79969,20.6480053 603.846347,22.5750205 608.210063,26.3535383 L608.210063,26.3535383 Z" id="ICTORES" fill="#424242" sketch:type="MSShapeGroup"></path>
                    <g id="V-triangle" transform="translate(0.000000, 2.000000)">
                        <mask id="mask-2" sketch:name="Mask" fill="white">
                            <use xlink:href="#path-1"></use>
                        </mask>
                        <use id="Mask" fill="#434343" sketch:type="MSShapeGroup" xlink:href="#path-1"></use>
                        <path d="M70.6448647,-8 L10.0087527,101.861425" id="Path-321" stroke="#434343" stroke-width="23.7999996" sketch:type="MSShapeGroup" mask="url(#mask-2)">
                            <g transform="translate(40.326809, 46.930713) scale(-1, 1) translate(-40.326809, -46.930713) "></g>
                        </path>
                        <path d="M95.8527422,-8 L35.2166302,101.861425" id="Path-321" stroke="#434343" stroke-width="23.7999996" sketch:type="MSShapeGroup" mask="url(#mask-2)"></path>
                        <path d="M59.4413636,-8 L-1.19474836,101.861425" id="Path-321" stroke="#A1E171" stroke-width="15.3999997" sketch:type="MSShapeGroup" mask="url(#mask-2)"></path>
                        <path d="M76.2466152,-8 L15.6105033,101.861425" id="Path-321" stroke="#52BAED" stroke-width="15.3999997" sketch:type="MSShapeGroup" mask="url(#mask-2)"></path>
                        <path d="M42.636112,-8 L-18,101.861425" id="Path-321" stroke="#F5E51D" stroke-width="15.3999997" sketch:type="MSShapeGroup" mask="url(#mask-2)"></path>
                    </g>
                </g>
                <text id="CELEBRATE-YOUR-RIDES" sketch:type="MSTextLayer" font-family="Poppins" font-size="23" font-weight="526" sketch:alignment="middle" letter-spacing="5" fill="#424242">
                    <tspan x="268.1915" y="256">CELEBRATE YOUR RIDE</tspan>
                    <tspan x="617.4565" y="256">S</tspan>
                </text>
                <rect id="outline" stroke="#000000" stroke-width="5" sketch:type="MSShapeGroup" x="0" y="0" width="900" height="349"></rect>
            </g>
        </g>
    </g>
</svg>